<?xml version="1.0" encoding="UTF-8"?>
<!DOCTYPE svg PUBLIC "-//W3C//DTD SVG 1.1//EN" "http://www.w3.org/Graphics/SVG/1.1/DTD/svg11.dtd">
<svg xmlns="http://www.w3.org/2000/svg" version="1.1" width="48px" height="48px" style="shape-rendering:geometricPrecision; text-rendering:geometricPrecision; image-rendering:optimizeQuality; fill-rule:evenodd; clip-rule:evenodd" xmlns:xlink="http://www.w3.org/1999/xlink">
<g><path style="opacity:0.863" fill="#000000" d="M 5.5,13.5 C 6.83333,13.5 8.16667,13.5 9.5,13.5C 9.33788,15.5273 9.50454,17.5273 10,19.5C 14.7172,16.2203 19.8839,14.2203 25.5,13.5C 25.3379,15.5273 25.5045,17.5273 26,19.5C 30.7172,16.2203 35.8839,14.2203 41.5,13.5C 41.5,20.1667 41.5,26.8333 41.5,33.5C 35.8839,32.7797 30.7172,30.7797 26,27.5C 25.5045,29.4727 25.3379,31.4727 25.5,33.5C 19.8839,32.7797 14.7172,30.7797 10,27.5C 9.50454,29.4727 9.33788,31.4727 9.5,33.5C 8.16667,33.5 6.83333,33.5 5.5,33.5C 5.5,26.8333 5.5,20.1667 5.5,13.5 Z M 20.5,19.5 C 21.6341,21.9664 21.8007,24.633 21,27.5C 18.7497,26.2921 16.583,24.9587 14.5,23.5C 16.5654,22.1433 18.5654,20.81 20.5,19.5 Z M 36.5,19.5 C 37.6341,21.9664 37.8007,24.633 37,27.5C 34.7497,26.2921 32.583,24.9587 30.5,23.5C 32.5654,22.1433 34.5654,20.81 36.5,19.5 Z"/></g>
</svg>
