<?xml version="1.0" encoding="UTF-8"?>
<!DOCTYPE svg PUBLIC "-//W3C//DTD SVG 1.1//EN" "http://www.w3.org/Graphics/SVG/1.1/DTD/svg11.dtd">
<svg xmlns="http://www.w3.org/2000/svg" version="1.1" width="30px" height="30px" style="shape-rendering:geometricPrecision; text-rendering:geometricPrecision; image-rendering:optimizeQuality; fill-rule:evenodd; clip-rule:evenodd" xmlns:xlink="http://www.w3.org/1999/xlink">
<g><path style="opacity:0.62" fill="#000000" d="M 9.5,3.5 C 11.604,3.2011 13.604,3.53443 15.5,4.5C 11.3302,8.99945 11.6636,13.1661 16.5,17C 19.2305,17.7284 21.8971,17.5617 24.5,16.5C 25.7822,20.4408 24.4489,23.2741 20.5,25C 7.50441,27.6691 2.00441,22.5024 4,9.5C 5.35968,6.97739 7.19301,4.97739 9.5,3.5 Z M 8.5,8.5 C 8.8693,16.0379 12.8693,20.2046 20.5,21C 12.7564,24.4621 8.08977,22.1288 6.5,14C 6.3948,11.8218 7.06146,9.98847 8.5,8.5 Z"/></g>
</svg>
