<?xml version="1.0" encoding="UTF-8"?>
<!DOCTYPE svg PUBLIC "-//W3C//DTD SVG 1.1//EN" "http://www.w3.org/Graphics/SVG/1.1/DTD/svg11.dtd">
<svg xmlns="http://www.w3.org/2000/svg" version="1.1" width="24px" height="24px" style="shape-rendering:geometricPrecision; text-rendering:geometricPrecision; image-rendering:optimizeQuality; fill-rule:evenodd; clip-rule:evenodd" xmlns:xlink="http://www.w3.org/1999/xlink">
<g><path style="opacity:0.849" fill="#000000" d="M 1.5,3.5 C 8.16667,3.5 14.8333,3.5 21.5,3.5C 21.5,8.83333 21.5,14.1667 21.5,19.5C 14.8333,19.5 8.16667,19.5 1.5,19.5C 1.5,14.1667 1.5,8.83333 1.5,3.5 Z M 3.5,6.5 C 8.65025,5.34926 13.9836,5.18259 19.5,6C 16.7053,7.29975 14.0387,8.79975 11.5,10.5C 9.04466,8.70329 6.37799,7.36995 3.5,6.5 Z M 3.5,9.5 C 5.92762,11.2485 8.59428,12.5819 11.5,13.5C 14.3535,12.8094 16.8535,11.4761 19,9.5C 19.4974,12.146 19.6641,14.8127 19.5,17.5C 14.1667,17.5 8.83333,17.5 3.5,17.5C 3.5,14.8333 3.5,12.1667 3.5,9.5 Z"/></g>
</svg>
