<?xml version="1.0" encoding="UTF-8"?>
<!DOCTYPE svg PUBLIC "-//W3C//DTD SVG 1.1//EN" "http://www.w3.org/Graphics/SVG/1.1/DTD/svg11.dtd">
<svg xmlns="http://www.w3.org/2000/svg" version="1.1" width="50px" height="50px" style="shape-rendering:geometricPrecision; text-rendering:geometricPrecision; image-rendering:optimizeQuality; fill-rule:evenodd; clip-rule:evenodd" xmlns:xlink="http://www.w3.org/1999/xlink">
<g><path style="opacity:0.678" fill="#000000" d="M 36.5,49.5 C 28.5,49.5 20.5,49.5 12.5,49.5C 12.2011,47.396 12.5344,45.396 13.5,43.5C 15.7105,42.8772 17.7105,41.8772 19.5,40.5C 5.92117,33.9419 2.08784,23.6085 8,9.5C 15.7453,1.08126 24.912,-0.752077 35.5,4C 43.9187,11.7453 45.7521,20.912 41,31.5C 37.8361,35.5136 34.0027,38.5136 29.5,40.5C 31.2895,41.8772 33.2895,42.8772 35.5,43.5C 36.4656,45.396 36.7989,47.396 36.5,49.5 Z M 15.5,33.5 C 12.1772,31.8976 10.0106,29.231 9,25.5C 7.16667,10 14,3.16667 29.5,5C 39.8548,9.70019 43.0215,17.5335 39,28.5C 33.3093,36.4064 25.8093,38.573 16.5,35C 15.944,34.6174 15.6107,34.1174 15.5,33.5 Z M 18.5,9.5 C 24.2354,8.82127 25.902,11.1546 23.5,16.5C 20.3622,15.1295 18.6955,12.7962 18.5,9.5 Z M 23.5,19.5 C 25.337,19.6395 25.6704,20.3061 24.5,21.5C 23.7025,21.0431 23.3691,20.3764 23.5,19.5 Z M 32.5,19.5 C 33.8333,19.5 35.1667,19.5 36.5,19.5C 37.0768,22.5497 35.9101,24.5497 33,25.5C 27.2321,23.6814 27.0654,21.6814 32.5,19.5 Z M 19.5,22.5 C 20.9468,23.1342 21.6134,24.3009 21.5,26C 20.5592,31.252 18.5592,31.752 15.5,27.5C 16.5076,25.5008 17.841,23.8342 19.5,22.5 Z M 22.5,39.5 C 23.8333,39.5 25.1667,39.5 26.5,39.5C 26.2965,41.3904 26.9632,42.8904 28.5,44C 30.6228,44.8147 32.6228,45.8147 34.5,47C 27.8333,47.6667 21.1667,47.6667 14.5,47C 16.3772,45.8147 18.3772,44.8147 20.5,44C 22.0368,42.8904 22.7035,41.3904 22.5,39.5 Z"/></g>
<g><path style="opacity:0.672" fill="#000000" d="M 15.5,33.5 C 11.0229,26.7354 12.6896,21.7354 20.5,18.5C 15.2821,15.6587 14.2821,11.8254 17.5,7C 25.6733,5.67536 29.0066,9.17536 27.5,17.5C 30.8175,16.7791 34.1508,16.6124 37.5,17C 41.2375,23.0788 39.5708,26.5788 32.5,27.5C 29.4857,27.7415 26.9857,26.7415 25,24.5C 25.3686,31.3895 22.2019,34.3895 15.5,33.5 Z M 18.5,9.5 C 18.6955,12.7962 20.3622,15.1295 23.5,16.5C 25.902,11.1546 24.2354,8.82127 18.5,9.5 Z M 23.5,19.5 C 23.3691,20.3764 23.7025,21.0431 24.5,21.5C 25.6704,20.3061 25.337,19.6395 23.5,19.5 Z M 32.5,19.5 C 27.0654,21.6814 27.2321,23.6814 33,25.5C 35.9101,24.5497 37.0768,22.5497 36.5,19.5C 35.1667,19.5 33.8333,19.5 32.5,19.5 Z M 19.5,22.5 C 17.841,23.8342 16.5076,25.5008 15.5,27.5C 18.5592,31.752 20.5592,31.252 21.5,26C 21.6134,24.3009 20.9468,23.1342 19.5,22.5 Z"/></g>
</svg>
