<?xml version="1.0" encoding="UTF-8"?>
<!DOCTYPE svg PUBLIC "-//W3C//DTD SVG 1.1//EN" "http://www.w3.org/Graphics/SVG/1.1/DTD/svg11.dtd">
<svg xmlns="http://www.w3.org/2000/svg" version="1.1" width="40px" height="40px" style="shape-rendering:geometricPrecision; text-rendering:geometricPrecision; image-rendering:optimizeQuality; fill-rule:evenodd; clip-rule:evenodd" xmlns:xlink="http://www.w3.org/1999/xlink">
<g><path style="opacity:1" fill="#4b8bc9" d="M 17.5,0.5 C 25.0632,2.69982 31.8965,6.36649 38,11.5C 36.8153,20.3922 36.3153,29.3922 36.5,38.5C 25.1667,38.5 13.8333,38.5 2.5,38.5C 2.68473,29.3922 2.18473,20.3922 1,11.5C 6.65146,7.934 12.1515,4.26734 17.5,0.5 Z"/></g>
<g><path style="opacity:1" fill="#99c4ee" d="M 31.5,11.5 C 27.5168,9.50842 23.5168,7.50842 19.5,5.5C 15.4832,7.50842 11.4832,9.50842 7.5,11.5C 5.32099,11.84 3.48765,12.84 2,14.5C 1.38277,13.5509 1.54943,12.7175 2.5,12C 8.16667,8.5 13.8333,5 19.5,1.5C 25.1667,5 30.8333,8.5 36.5,12C 37.4506,12.7175 37.6172,13.5509 37,14.5C 35.5123,12.84 33.679,11.84 31.5,11.5 Z"/></g>
<g><path style="opacity:1" fill="#deeffd" d="M 31.5,11.5 C 32.3149,12.8366 33.4815,13.8366 35,14.5C 35.4997,22.1594 35.6664,29.8261 35.5,37.5C 32.1667,37.5 28.8333,37.5 25.5,37.5C 25.5,31.8333 25.5,26.1667 25.5,20.5C 21.5,20.5 17.5,20.5 13.5,20.5C 13.5,26.1667 13.5,31.8333 13.5,37.5C 10.1667,37.5 6.83333,37.5 3.5,37.5C 3.33365,29.8261 3.50031,22.1594 4,14.5C 5.51845,13.8366 6.68512,12.8366 7.5,11.5C 11.4832,9.50842 15.4832,7.50842 19.5,5.5C 23.5168,7.50842 27.5168,9.50842 31.5,11.5 Z"/></g>
<g><path style="opacity:1" fill="#b4dafc" d="M 14.5,21.5 C 17.8333,21.5 21.1667,21.5 24.5,21.5C 24.5,26.8333 24.5,32.1667 24.5,37.5C 21.1667,37.5 17.8333,37.5 14.5,37.5C 14.5,32.1667 14.5,26.8333 14.5,21.5 Z"/></g>
</svg>
