<?xml version="1.0" encoding="UTF-8"?>
<!DOCTYPE svg PUBLIC "-//W3C//DTD SVG 1.1//EN" "http://www.w3.org/Graphics/SVG/1.1/DTD/svg11.dtd">
<svg xmlns="http://www.w3.org/2000/svg" version="1.1" width="50px" height="50px" style="shape-rendering:geometricPrecision; text-rendering:geometricPrecision; image-rendering:optimizeQuality; fill-rule:evenodd; clip-rule:evenodd" xmlns:xlink="http://www.w3.org/1999/xlink">
<g><path style="opacity:0.637" fill="#000000" d="M 14.5,-0.5 C 18.8333,-0.5 23.1667,-0.5 27.5,-0.5C 37.9958,3.86752 43.1625,11.8675 43,23.5C 45.4606,27.0961 47.6273,30.7627 49.5,34.5C 49.5,37.5 49.5,40.5 49.5,43.5C 47.863,45.4752 46.1964,47.4752 44.5,49.5C 41.1667,49.5 37.8333,49.5 34.5,49.5C 32.1397,47.1348 30.1397,44.4681 28.5,41.5C 14.6422,45.0693 4.97553,40.4027 -0.5,27.5C -0.5,23.1667 -0.5,18.8333 -0.5,14.5C 2.16667,7.16667 7.16667,2.16667 14.5,-0.5 Z M 20.5,1.5 C 22.4144,2.18475 24.4144,2.68475 26.5,3C 22.8333,3.66667 19.1667,3.66667 15.5,3C 17.3817,2.80192 19.0484,2.30192 20.5,1.5 Z M 31.5,29.5 C 30.7457,32.091 29.079,33.9243 26.5,35C 17.6406,37.4853 11.1406,34.652 7,26.5C 4.86451,14.9683 9.53118,7.96834 21,5.5C 24.6836,5.90387 27.8503,7.40387 30.5,10C 25.6886,8.59552 20.6886,8.26219 15.5,9C 8.86245,13.0166 6.69579,18.8499 9,26.5C 9.87474,29.2146 11.7081,30.5479 14.5,30.5C 14.3921,28.2166 13.5588,26.2166 12,24.5C 11.1324,14.0339 15.7991,10.0339 26,12.5C 24.8045,15.185 22.6378,17.185 19.5,18.5C 18.5481,20.0453 18.2148,21.712 18.5,23.5C 20.288,23.7852 21.9547,23.4519 23.5,22.5C 29.022,13.9511 31.1887,14.6178 30,24.5C 28.4412,26.2166 27.6079,28.2166 27.5,30.5C 28.9587,30.5674 30.2921,30.2341 31.5,29.5 Z M 33.5,26.5 C 33.4764,21.7734 33.3097,17.1068 33,12.5C 34.9071,14.6088 35.7404,17.1088 35.5,20C 35.664,22.5437 34.9973,24.7103 33.5,26.5 Z M 34.5,44.5 C 35.5,44.5 36.5,44.5 37.5,44.5C 35.8317,39.8357 36.4984,35.5024 39.5,31.5C 38.9953,30.0815 37.9953,29.4148 36.5,29.5C 37.0476,27.6064 38.0476,25.9397 39.5,24.5C 45.2325,30.244 47.0658,36.9107 45,44.5C 41.3891,47.1444 37.8891,47.1444 34.5,44.5 Z M 15.5,39.5 C 18.9758,38.3567 22.6425,38.1901 26.5,39C 24.567,39.2511 22.7337,39.7511 21,40.5C 19.3005,39.5939 17.4672,39.2606 15.5,39.5 Z"/></g>
</svg>
