<?xml version="1.0" encoding="UTF-8"?>
<!DOCTYPE svg PUBLIC "-//W3C//DTD SVG 1.1//EN" "http://www.w3.org/Graphics/SVG/1.1/DTD/svg11.dtd">
<svg xmlns="http://www.w3.org/2000/svg" version="1.1" width="50px" height="50px" style="shape-rendering:geometricPrecision; text-rendering:geometricPrecision; image-rendering:optimizeQuality; fill-rule:evenodd; clip-rule:evenodd" xmlns:xlink="http://www.w3.org/1999/xlink">
<g><path style="opacity:0.615" fill="#000000" d="M 17.5,1.5 C 41.1541,0.318958 50.6541,11.319 46,34.5C 38.7573,46.8068 28.2573,50.6402 14.5,46C 2.19317,38.7573 -1.64016,28.2573 3,14.5C 6.16246,8.16411 10.9958,3.83077 17.5,1.5 Z M 18.5,4.5 C 36.9488,3.44852 45.4488,12.1152 44,30.5C 38.1981,42.9824 28.6981,47.1491 15.5,43C 4.9871,36.4639 1.82043,27.2972 6,15.5C 9.1476,10.5094 13.3143,6.84275 18.5,4.5 Z"/></g>
<g><path style="opacity:0.765" fill="#000000" d="M 21.5,10.5 C 23.5,10.5 25.5,10.5 27.5,10.5C 27.5,12.5 27.5,14.5 27.5,16.5C 25.5,16.5 23.5,16.5 21.5,16.5C 21.5,14.5 21.5,12.5 21.5,10.5 Z"/></g>
<g><path style="opacity:1" fill="#000000" d="M 20.5,20.5 C 22.5,20.5 24.5,20.5 26.5,20.5C 25.9539,26.0667 26.6206,31.4 28.5,36.5C 25.8333,37.8333 23.1667,37.8333 20.5,36.5C 23.0653,31.1708 23.0653,25.8374 20.5,20.5 Z"/></g>
</svg>
