<?xml version="1.0" encoding="UTF-8"?>
<!DOCTYPE svg PUBLIC "-//W3C//DTD SVG 1.1//EN" "http://www.w3.org/Graphics/SVG/1.1/DTD/svg11.dtd">
<svg xmlns="http://www.w3.org/2000/svg" version="1.1" width="48px" height="48px" style="shape-rendering:geometricPrecision; text-rendering:geometricPrecision; image-rendering:optimizeQuality; fill-rule:evenodd; clip-rule:evenodd" xmlns:xlink="http://www.w3.org/1999/xlink">
<g><path style="opacity:0.876" fill="#000000" d="M 19.5,3.5 C 23.0071,2.99353 26.1737,3.66019 29,5.5C 29.6667,12.1667 29.6667,18.8333 29,25.5C 25.3333,28.1667 21.6667,28.1667 18,25.5C 17.3333,18.8333 17.3333,12.1667 18,5.5C 18.7172,4.9558 19.2172,4.28913 19.5,3.5 Z M 22.5,8.5 C 23.4959,8.41423 24.3292,8.74756 25,9.5C 25.6667,13.5 25.6667,17.5 25,21.5C 24,22.8333 23,22.8333 22,21.5C 21.2316,17.0804 21.3982,12.7471 22.5,8.5 Z"/></g>
<g><path style="opacity:0.806" fill="#000000" d="M 9.5,21.5 C 11.1667,21.5 12.8333,21.5 14.5,21.5C 14.4914,27.4914 17.4914,30.4914 23.5,30.5C 29.5086,30.4914 32.5086,27.4914 32.5,21.5C 34.1667,21.5 35.8333,21.5 37.5,21.5C 37.4549,29.5457 33.4549,34.2124 25.5,35.5C 25.5,37.5 25.5,39.5 25.5,41.5C 24.1667,41.5 22.8333,41.5 21.5,41.5C 21.5,39.5 21.5,37.5 21.5,35.5C 13.5451,34.2124 9.54509,29.5457 9.5,21.5 Z"/></g>
</svg>
