<?xml version="1.0" encoding="UTF-8"?>
<!DOCTYPE svg PUBLIC "-//W3C//DTD SVG 1.1//EN" "http://www.w3.org/Graphics/SVG/1.1/DTD/svg11.dtd">
<svg xmlns="http://www.w3.org/2000/svg" version="1.1" width="50px" height="50px" style="shape-rendering:geometricPrecision; text-rendering:geometricPrecision; image-rendering:optimizeQuality; fill-rule:evenodd; clip-rule:evenodd" xmlns:xlink="http://www.w3.org/1999/xlink">
<g><path style="opacity:0.636" fill="#000000" d="M 24.5,1.5 C 34.3027,1.46868 41.4694,5.80201 46,14.5C 50.9865,29.9148 46.1531,40.7482 31.5,47C 19.8071,49.7737 10.6405,46.2737 4,36.5C 2.0111,32.747 1.17777,28.747 1.5,24.5C 2.5,24.5 3.5,24.5 4.5,24.5C 7.82186,33.9116 14.4885,37.4116 24.5,35C 33.8505,31.3365 37.3505,24.5032 35,14.5C 33.2449,9.24291 29.7449,5.90958 24.5,4.5C 24.5,3.5 24.5,2.5 24.5,1.5 Z M 36.5,8.5 C 43.7827,14.0912 46.2827,21.4245 44,30.5C 37.0966,44.6987 26.5966,48.1987 12.5,41C 10.9586,39.6288 9.62529,38.1288 8.5,36.5C 29.109,42.3762 38.9423,34.7095 38,13.5C 37.3923,11.8455 36.8923,10.1789 36.5,8.5 Z"/></g>
</svg>
