<?xml version="1.0" encoding="UTF-8"?>
<!DOCTYPE svg PUBLIC "-//W3C//DTD SVG 1.1//EN" "http://www.w3.org/Graphics/SVG/1.1/DTD/svg11.dtd">
<svg xmlns="http://www.w3.org/2000/svg" version="1.1" width="50px" height="50px" style="shape-rendering:geometricPrecision; text-rendering:geometricPrecision; image-rendering:optimizeQuality; fill-rule:evenodd; clip-rule:evenodd" xmlns:xlink="http://www.w3.org/1999/xlink">
<g><path style="opacity:1" fill="#000000" d="M 11.5,7.5 C 14.8333,7.5 18.1667,7.5 21.5,7.5C 21.5,18.8333 21.5,30.1667 21.5,41.5C 18.1667,41.5 14.8333,41.5 11.5,41.5C 11.5,30.1667 11.5,18.8333 11.5,7.5 Z M 13.5,9.5 C 15.5,9.5 17.5,9.5 19.5,9.5C 19.5,19.5 19.5,29.5 19.5,39.5C 17.5,39.5 15.5,39.5 13.5,39.5C 13.5,29.5 13.5,19.5 13.5,9.5 Z"/></g>
<g><path style="opacity:1" fill="#000000" d="M 27.5,7.5 C 30.8333,7.5 34.1667,7.5 37.5,7.5C 37.5,18.8333 37.5,30.1667 37.5,41.5C 34.1667,41.5 30.8333,41.5 27.5,41.5C 27.5,30.1667 27.5,18.8333 27.5,7.5 Z M 29.5,9.5 C 31.5,9.5 33.5,9.5 35.5,9.5C 35.5,19.5 35.5,29.5 35.5,39.5C 33.5,39.5 31.5,39.5 29.5,39.5C 29.5,29.5 29.5,19.5 29.5,9.5 Z"/></g>
</svg>
