<?xml version="1.0" encoding="UTF-8"?>
<!DOCTYPE svg PUBLIC "-//W3C//DTD SVG 1.1//EN" "http://www.w3.org/Graphics/SVG/1.1/DTD/svg11.dtd">
<svg xmlns="http://www.w3.org/2000/svg" version="1.1" width="40px" height="40px" style="shape-rendering:geometricPrecision; text-rendering:geometricPrecision; image-rendering:optimizeQuality; fill-rule:evenodd; clip-rule:evenodd" xmlns:xlink="http://www.w3.org/1999/xlink">
<g><path style="opacity:1" fill="#4e7ab5" d="M 16.5,1.5 C 18.5,1.5 20.5,1.5 22.5,1.5C 22.5,6.5 22.5,11.5 22.5,16.5C 27.5,16.5 32.5,16.5 37.5,16.5C 37.5,18.5 37.5,20.5 37.5,22.5C 32.5,22.5 27.5,22.5 22.5,22.5C 22.5,27.5 22.5,32.5 22.5,37.5C 20.5,37.5 18.5,37.5 16.5,37.5C 16.5,32.5 16.5,27.5 16.5,22.5C 11.5,22.5 6.5,22.5 1.5,22.5C 1.5,20.5 1.5,18.5 1.5,16.5C 6.5,16.5 11.5,16.5 16.5,16.5C 16.5,11.5 16.5,6.5 16.5,1.5 Z"/></g>
<g><path style="opacity:1" fill="#8bb7f0" d="M 17.5,2.5 C 18.8333,2.5 20.1667,2.5 21.5,2.5C 21.5,7.5 21.5,12.5 21.5,17.5C 26.5,17.5 31.5,17.5 36.5,17.5C 36.5,18.8333 36.5,20.1667 36.5,21.5C 31.5,21.5 26.5,21.5 21.5,21.5C 21.5,26.5 21.5,31.5 21.5,36.5C 20.1667,36.5 18.8333,36.5 17.5,36.5C 17.5,31.5 17.5,26.5 17.5,21.5C 12.5,21.5 7.5,21.5 2.5,21.5C 2.5,20.1667 2.5,18.8333 2.5,17.5C 7.5,17.5 12.5,17.5 17.5,17.5C 17.5,12.5 17.5,7.5 17.5,2.5 Z"/></g>
</svg>
