<?xml version="1.0" encoding="UTF-8"?>
<!DOCTYPE svg PUBLIC "-//W3C//DTD SVG 1.1//EN" "http://www.w3.org/Graphics/SVG/1.1/DTD/svg11.dtd">
<svg xmlns="http://www.w3.org/2000/svg" version="1.1" width="50px" height="50px" style="shape-rendering:geometricPrecision; text-rendering:geometricPrecision; image-rendering:optimizeQuality; fill-rule:evenodd; clip-rule:evenodd" xmlns:xlink="http://www.w3.org/1999/xlink">
<g><path style="opacity:0.984" fill="#000000" d="M 4.5,3.5 C 17.8375,3.33344 31.1708,3.5001 44.5,4C 45.4764,10.0758 45.8097,16.2424 45.5,22.5C 43.8333,22.5 42.1667,22.5 40.5,22.5C 40.5,17.8333 40.5,13.1667 40.5,8.5C 29.8333,8.5 19.1667,8.5 8.5,8.5C 8.5,11.1667 8.5,13.8333 8.5,16.5C 6.83333,16.5 5.16667,16.5 3.5,16.5C 3.23071,12.0685 3.56404,7.7352 4.5,3.5 Z"/></g>
<g><path style="opacity:0.984" fill="#000000" d="M -0.5,17.5 C 7.16667,17.5 14.8333,17.5 22.5,17.5C 22.5,26.8333 22.5,36.1667 22.5,45.5C 14.8333,45.5 7.16667,45.5 -0.5,45.5C -0.5,36.1667 -0.5,26.8333 -0.5,17.5 Z M 3.5,21.5 C 8.5,21.5 13.5,21.5 18.5,21.5C 18.5,27.5 18.5,33.5 18.5,39.5C 13.5,39.5 8.5,39.5 3.5,39.5C 3.5,33.5 3.5,27.5 3.5,21.5 Z"/></g>
<g><path style="opacity:0.976" fill="#000000" d="M 49.5,23.5 C 49.5,30.8333 49.5,38.1667 49.5,45.5C 44.5,45.5 39.5,45.5 34.5,45.5C 34.5,38.1667 34.5,30.8333 34.5,23.5C 39.5,23.5 44.5,23.5 49.5,23.5 Z M 38.5,27.5 C 40.8333,27.5 43.1667,27.5 45.5,27.5C 45.5,31.5 45.5,35.5 45.5,39.5C 43.1667,39.5 40.8333,39.5 38.5,39.5C 38.5,35.5 38.5,31.5 38.5,27.5 Z"/></g>
<g><path style="opacity:1" fill="#000000" d="M 23.5,31.5 C 26.8333,31.5 30.1667,31.5 33.5,31.5C 33.5,32.8333 33.5,34.1667 33.5,35.5C 32.1667,35.5 30.8333,35.5 29.5,35.5C 29.5,36.5 29.5,37.5 29.5,38.5C 30.8333,38.5 32.1667,38.5 33.5,38.5C 33.5,39.8333 33.5,41.1667 33.5,42.5C 30.1667,42.5 26.8333,42.5 23.5,42.5C 23.5,38.8333 23.5,35.1667 23.5,31.5 Z"/></g>
</svg>
