<?xml version="1.0" encoding="UTF-8"?>
<!DOCTYPE svg PUBLIC "-//W3C//DTD SVG 1.1//EN" "http://www.w3.org/Graphics/SVG/1.1/DTD/svg11.dtd">
<svg xmlns="http://www.w3.org/2000/svg" version="1.1" width="100px" height="100px" style="shape-rendering:geometricPrecision; text-rendering:geometricPrecision; image-rendering:optimizeQuality; fill-rule:evenodd; clip-rule:evenodd" xmlns:xlink="http://www.w3.org/1999/xlink">
<g><path style="opacity:0.575" fill="#000000" d="M 32.5,10.5 C 33.8734,10.3433 35.2068,10.51 36.5,11C 49.4089,23.4063 61.7422,36.2397 73.5,49.5C 61.7422,62.7603 49.4089,75.5937 36.5,88C 35.8333,88.1667 35.1667,88.3333 34.5,88.5C 31.2566,86.7653 28.4233,84.4319 26,81.5C 25.3333,80.1667 25.3333,78.8333 26,77.5C 35.3477,68.3192 44.5144,58.9858 53.5,49.5C 44.5144,40.0142 35.3477,30.6808 26,21.5C 25.3333,20.1667 25.3333,18.8333 26,17.5C 28.3722,15.2968 30.5389,12.9635 32.5,10.5 Z M 39.5,19.5 C 37.6453,19.272 36.8119,19.9387 37,21.5C 42.348,27.015 47.848,32.3483 53.5,37.5C 54.3857,36.675 54.719,35.675 54.5,34.5C 57.1667,36.5 59.5,38.8333 61.5,41.5C 59.6453,41.272 58.8119,41.9387 59,43.5C 60.0195,44.6872 61.1861,45.6872 62.5,46.5C 63.3857,45.675 63.719,44.675 63.5,43.5C 65.1667,44.5 66.5,45.8333 67.5,47.5C 69.0847,48.0024 69.5847,49.0024 69,50.5C 66.9633,52.7059 64.7966,54.7059 62.5,56.5C 62.1575,54.7748 61.1575,54.2748 59.5,55C 51.6521,62.681 43.9854,70.5143 36.5,78.5C 37.325,79.3857 38.325,79.719 39.5,79.5C 35.4322,86.1984 32.2655,85.8651 30,78.5C 39.7443,69.259 48.911,59.5924 57.5,49.5C 48.911,39.4076 39.7443,29.741 30,20.5C 32.2655,13.1349 35.4322,12.8016 39.5,19.5 Z"/></g>
<g><path style="opacity:0.36" fill="#000000" d="M 39.5,19.5 C 39.5,20.1667 39.8333,20.5 40.5,20.5C 40.5,21.1667 40.8333,21.5 41.5,21.5C 41.5,22.1667 41.8333,22.5 42.5,22.5C 42.5,23.1667 42.8333,23.5 43.5,23.5C 43.5,24.1667 43.8333,24.5 44.5,24.5C 44.5,25.1667 44.8333,25.5 45.5,25.5C 45.5,26.1667 45.8333,26.5 46.5,26.5C 46.5,27.1667 46.8333,27.5 47.5,27.5C 47.5,28.1667 47.8333,28.5 48.5,28.5C 48.5,29.1667 48.8333,29.5 49.5,29.5C 49.5,30.1667 49.8333,30.5 50.5,30.5C 50.5,31.1667 50.8333,31.5 51.5,31.5C 51.5,32.1667 51.8333,32.5 52.5,32.5C 52.5,33.1667 52.8333,33.5 53.5,33.5C 53.5,34.1667 53.8333,34.5 54.5,34.5C 54.719,35.675 54.3857,36.675 53.5,37.5C 47.848,32.3483 42.348,27.015 37,21.5C 36.8119,19.9387 37.6453,19.272 39.5,19.5 Z"/></g>
<g><path style="opacity:0.358" fill="#000000" d="M 61.5,41.5 C 61.5,42.1667 61.8333,42.5 62.5,42.5C 62.5,43.1667 62.8333,43.5 63.5,43.5C 63.719,44.675 63.3857,45.675 62.5,46.5C 61.1861,45.6872 60.0195,44.6872 59,43.5C 58.8119,41.9387 59.6453,41.272 61.5,41.5 Z"/></g>
<g><path style="opacity:0.356" fill="#000000" d="M 67.5,47.5 C 67.3328,50.9571 66.3328,51.2904 64.5,48.5C 65.325,47.6143 66.325,47.281 67.5,47.5 Z"/></g>
<g><path style="opacity:0.36" fill="#000000" d="M 62.5,56.5 C 61.8333,56.5 61.5,56.8333 61.5,57.5C 60.8333,57.5 60.5,57.8333 60.5,58.5C 59.8333,58.5 59.5,58.8333 59.5,59.5C 58.8333,59.5 58.5,59.8333 58.5,60.5C 57.8333,60.5 57.5,60.8333 57.5,61.5C 56.8333,61.5 56.5,61.8333 56.5,62.5C 55.8333,62.5 55.5,62.8333 55.5,63.5C 54.8333,63.5 54.5,63.8333 54.5,64.5C 53.8333,64.5 53.5,64.8333 53.5,65.5C 52.8333,65.5 52.5,65.8333 52.5,66.5C 51.8333,66.5 51.5,66.8333 51.5,67.5C 50.8333,67.5 50.5,67.8333 50.5,68.5C 49.8333,68.5 49.5,68.8333 49.5,69.5C 48.8333,69.5 48.5,69.8333 48.5,70.5C 47.8333,70.5 47.5,70.8333 47.5,71.5C 46.8333,71.5 46.5,71.8333 46.5,72.5C 45.8333,72.5 45.5,72.8333 45.5,73.5C 44.8333,73.5 44.5,73.8333 44.5,74.5C 43.8333,74.5 43.5,74.8333 43.5,75.5C 42.8333,75.5 42.5,75.8333 42.5,76.5C 41.8333,76.5 41.5,76.8333 41.5,77.5C 40.8333,77.5 40.5,77.8333 40.5,78.5C 39.8333,78.5 39.5,78.8333 39.5,79.5C 38.325,79.719 37.325,79.3857 36.5,78.5C 43.9854,70.5143 51.6521,62.681 59.5,55C 61.1575,54.2748 62.1575,54.7748 62.5,56.5 Z"/></g>
</svg>
