<?xml version="1.0" encoding="UTF-8"?>
<!DOCTYPE svg PUBLIC "-//W3C//DTD SVG 1.1//EN" "http://www.w3.org/Graphics/SVG/1.1/DTD/svg11.dtd">
<svg xmlns="http://www.w3.org/2000/svg" version="1.1" width="48px" height="48px" style="shape-rendering:geometricPrecision; text-rendering:geometricPrecision; image-rendering:optimizeQuality; fill-rule:evenodd; clip-rule:evenodd" xmlns:xlink="http://www.w3.org/1999/xlink">
<g><path style="opacity:0.808" fill="#000000" d="M 24.5,3.5 C 41.268,3.02843 46.768,10.6951 41,26.5C 34.8722,31.8933 28.0389,32.8933 20.5,29.5C 16.8807,34.7876 12.5474,39.4542 7.5,43.5C 5.83333,42.5 4.5,41.1667 3.5,39.5C 7.54576,34.4526 12.2124,30.1193 17.5,26.5C 12.9341,16.4387 15.2674,8.77208 24.5,3.5 Z M 25.5,8.5 C 35.6591,7.15811 39.8257,11.4914 38,21.5C 35.1034,26.1549 30.9367,27.6549 25.5,26C 20.8451,23.1034 19.3451,18.9367 21,13.5C 22.025,11.313 23.525,9.64638 25.5,8.5 Z"/></g>
</svg>
