<?xml version="1.0" encoding="UTF-8"?>
<!DOCTYPE svg PUBLIC "-//W3C//DTD SVG 1.1//EN" "http://www.w3.org/Graphics/SVG/1.1/DTD/svg11.dtd">
<svg xmlns="http://www.w3.org/2000/svg" version="1.1" width="100px" height="100px" style="shape-rendering:geometricPrecision; text-rendering:geometricPrecision; image-rendering:optimizeQuality; fill-rule:evenodd; clip-rule:evenodd" xmlns:xlink="http://www.w3.org/1999/xlink">
<g><path style="opacity:0.942" fill="#25232d" d="M 47.5,13.5 C 48.8734,13.3433 50.2068,13.51 51.5,14C 57.1667,18.1667 62.8333,22.3333 68.5,26.5C 68.8333,25.6667 69.1667,24.8333 69.5,24C 68.22,21.6403 67.5533,19.1403 67.5,16.5C 71.1667,16.5 74.8333,16.5 78.5,16.5C 77.7801,19.9581 77.1134,23.4581 76.5,27C 76.6667,28.8333 76.8333,30.6667 77,32.5C 79.4087,34.6201 81.9087,36.6201 84.5,38.5C 85.4922,42.7828 85.8256,47.1161 85.5,51.5C 84.1779,51.67 83.0113,51.3366 82,50.5C 81.5002,61.495 81.3335,72.495 81.5,83.5C 60.1667,83.5 38.8333,83.5 17.5,83.5C 17.6665,72.495 17.4998,61.495 17,50.5C 15.9887,51.3366 14.8221,51.67 13.5,51.5C 13.1744,47.1161 13.5078,42.7828 14.5,38.5C 25.7478,30.3891 36.7478,22.0557 47.5,13.5 Z"/></g>
<g><path style="opacity:1" fill="#e75869" d="M 73.5,36.5 C 73.5,37.1667 73.8333,37.5 74.5,37.5C 74.56,38.0431 74.8933,38.3764 75.5,38.5C 76.1667,37.8333 76.8333,37.1667 77.5,36.5C 79.1933,38.0267 81.0266,39.3601 83,40.5C 83.6667,43.1667 83.6667,45.8333 83,48.5C 71.9745,39.9741 60.8079,31.6408 49.5,23.5C 38.1921,31.6408 27.0255,39.9741 16,48.5C 15.2228,45.5706 15.3895,42.7372 16.5,40C 27.5399,32.1536 38.5399,24.3203 49.5,16.5C 56.3934,20.5511 62.8934,25.2177 69,30.5C 68.8246,33.8176 70.3246,35.8176 73.5,36.5 Z"/></g>
<g><path style="opacity:1" fill="#fdfbee" d="M 74.5,37.5 C 73.8333,37.5 73.5,37.1667 73.5,36.5C 73.2504,35.0779 72.417,34.0779 71,33.5C 70.8345,28.0066 70.0012,22.6733 68.5,17.5C 71.5,17.5 74.5,17.5 77.5,17.5C 76.0097,24.0879 75.0097,30.7546 74.5,37.5 Z"/></g>
<g><path style="opacity:1" fill="#c6c5b8" d="M 79.5,51.5 C 69.2375,44.5776 59.2375,37.2442 49.5,29.5C 39.7625,37.2442 29.7625,44.5776 19.5,51.5C 19.2865,49.8561 19.6198,48.3561 20.5,47C 30.0527,39.938 39.7193,33.1047 49.5,26.5C 59.2807,33.1047 68.9473,39.938 78.5,47C 79.3802,48.3561 79.7135,49.8561 79.5,51.5 Z"/></g>
<g><path style="opacity:1" fill="#fbfaed" d="M 79.5,51.5 C 79.5,61.5 79.5,71.5 79.5,81.5C 59.5,81.5 39.5,81.5 19.5,81.5C 19.5,71.5 19.5,61.5 19.5,51.5C 29.7625,44.5776 39.7625,37.2442 49.5,29.5C 59.2375,37.2442 69.2375,44.5776 79.5,51.5 Z"/></g>
<g><path style="opacity:1" fill="#2a2b35" d="M 46.5,42.5 C 48.5273,42.3379 50.5273,42.5045 52.5,43C 53.3366,44.0113 53.67,45.1779 53.5,46.5C 55.5753,46.3016 57.5753,46.1349 59.5,46C 61.019,47.3513 62.3523,48.8513 63.5,50.5C 62.6906,52.0709 62.3573,53.7376 62.5,55.5C 65.488,55.1547 66.8213,56.488 66.5,59.5C 66.8213,62.512 65.488,63.8453 62.5,63.5C 62.6984,65.5753 62.8651,67.5753 63,69.5C 61.6487,71.019 60.1487,72.3523 58.5,73.5C 56.9291,72.6906 55.2624,72.3573 53.5,72.5C 53.8453,75.488 52.512,76.8213 49.5,76.5C 46.488,76.8213 45.1547,75.488 45.5,72.5C 43.4247,72.6984 41.4247,72.8651 39.5,73C 37.981,71.6487 36.6477,70.1487 35.5,68.5C 36.3094,66.9291 36.6427,65.2624 36.5,63.5C 33.512,63.8453 32.1787,62.512 32.5,59.5C 32.1787,56.488 33.512,55.1547 36.5,55.5C 36.3016,53.4247 36.1349,51.4247 36,49.5C 37.3513,47.981 38.8513,46.6477 40.5,45.5C 42.0709,46.3094 43.7376,46.6427 45.5,46.5C 45.4326,45.0413 45.7659,43.7079 46.5,42.5 Z"/></g>
<g><path style="opacity:1" fill="#9b9bc4" d="M 47.5,44.5 C 50.245,44.373 52.245,45.5397 53.5,48C 55.8333,48.3333 58.1667,48.6667 60.5,49C 60.8179,51.0419 60.9846,53.2086 61,55.5C 65.6667,58.1667 65.6667,60.8333 61,63.5C 60.6667,65.8333 60.3333,68.1667 60,70.5C 57.9581,70.8179 55.7914,70.9846 53.5,71C 50.8333,75.6667 48.1667,75.6667 45.5,71C 43.1667,70.6667 40.8333,70.3333 38.5,70C 38.1821,67.9581 38.0154,65.7914 38,63.5C 33.3333,60.8333 33.3333,58.1667 38,55.5C 38.3052,53.4432 38.3052,51.4432 38,49.5C 40.405,48.7256 42.905,48.2256 45.5,48C 46.8228,47.1841 47.4894,46.0174 47.5,44.5 Z"/></g>
<g><path style="opacity:1" fill="#6e6e9e" d="M 41.5,60.5 C 41.4326,59.0413 41.7659,57.7079 42.5,56.5C 44.3925,55.2983 46.2258,53.965 48,52.5C 48.1667,53.1667 48.3333,53.8333 48.5,54.5C 47.192,57.2592 46.192,60.0926 45.5,63C 43.9176,62.8071 42.5843,61.9738 41.5,60.5 Z"/></g>
<g><path style="opacity:1" fill="#6d6d9c" d="M 51.5,52.5 C 53.1788,52.2852 54.1788,52.9519 54.5,54.5C 55.1534,55.8068 55.8201,57.1401 56.5,58.5C 56,58.8333 55.5,59.1667 55,59.5C 53.518,57.8881 51.6847,56.8881 49.5,56.5C 49.1568,54.5168 49.8235,53.1834 51.5,52.5 Z"/></g>
<g><path style="opacity:1" fill="#6f6f9f" d="M 54.5,65.5 C 53.7095,66.4013 52.7095,67.0679 51.5,67.5C 50.6016,66.8423 49.6016,66.1757 48.5,65.5C 49.5244,64.1482 50.5244,62.8149 51.5,61.5C 52.7079,60.7659 54.0413,60.4326 55.5,60.5C 55.7035,62.3904 55.0368,63.8904 53.5,65C 53.7284,65.3988 54.0618,65.5654 54.5,65.5 Z"/></g>
<g><path style="opacity:1" fill="#3c3e52" d="M 51.5,52.5 C 49.8235,53.1834 49.1568,54.5168 49.5,56.5C 51.6847,56.8881 53.518,57.8881 55,59.5C 55.5,59.1667 56,58.8333 56.5,58.5C 55.8201,57.1401 55.1534,55.8068 54.5,54.5C 56.7351,55.2858 57.7351,56.9524 57.5,59.5C 57.5328,62.1016 56.5328,64.1016 54.5,65.5C 54.0618,65.5654 53.7284,65.3988 53.5,65C 55.0368,63.8904 55.7035,62.3904 55.5,60.5C 54.0413,60.4326 52.7079,60.7659 51.5,61.5C 50.5244,62.8149 49.5244,64.1482 48.5,65.5C 49.6016,66.1757 50.6016,66.8423 51.5,67.5C 46.0244,68.1039 42.691,65.7706 41.5,60.5C 42.5843,61.9738 43.9176,62.8071 45.5,63C 46.192,60.0926 47.192,57.2592 48.5,54.5C 48.3333,53.8333 48.1667,53.1667 48,52.5C 46.2258,53.965 44.3925,55.2983 42.5,56.5C 44.2519,52.1205 47.2519,50.7871 51.5,52.5 Z"/></g>
<g><path style="opacity:1" fill="#f6f5e8" d="M 51.5,61.5 C 50.1667,61.5 48.8333,61.5 47.5,61.5C 47.5,60.1667 47.5,58.8333 47.5,57.5C 48.8333,57.5 50.1667,57.5 51.5,57.5C 51.5,58.8333 51.5,60.1667 51.5,61.5 Z"/></g>
</svg>
