<?xml version="1.0" encoding="UTF-8"?>
<!DOCTYPE svg PUBLIC "-//W3C//DTD SVG 1.1//EN" "http://www.w3.org/Graphics/SVG/1.1/DTD/svg11.dtd">
<svg xmlns="http://www.w3.org/2000/svg" version="1.1" width="50px" height="50px" style="shape-rendering:geometricPrecision; text-rendering:geometricPrecision; image-rendering:optimizeQuality; fill-rule:evenodd; clip-rule:evenodd" xmlns:xlink="http://www.w3.org/1999/xlink">
<g><path style="opacity:0.779" fill="#000000" d="M 20.5,-0.5 C 23.1667,-0.5 25.8333,-0.5 28.5,-0.5C 30.2681,2.16248 30.9347,5.16248 30.5,8.5C 35.6945,8.94166 35.6945,9.94166 30.5,11.5C 35.8333,12.8333 35.8333,14.1667 30.5,15.5C 35.8333,16.8333 35.8333,18.1667 30.5,19.5C 35.8333,20.8333 35.8333,22.1667 30.5,23.5C 31.8333,24.1667 33.1667,24.8333 34.5,25.5C 33.624,26.2508 32.624,26.7508 31.5,27C 36.6846,31.9472 37.8513,37.7806 35,44.5C 33.2703,46.4019 31.437,48.0686 29.5,49.5C 26.1667,49.5 22.8333,49.5 19.5,49.5C 12.9543,45.6521 10.7876,39.9854 13,32.5C 14.2899,30.208 15.9565,28.208 18,26.5C 18.3333,18.1667 18.6667,9.83333 19,1.5C 19.7172,0.955796 20.2172,0.28913 20.5,-0.5 Z M 21.5,2.5 C 26.4948,1.58235 28.8281,3.58235 28.5,8.5C 25.8333,8.5 23.1667,8.5 20.5,8.5C 20.5172,6.43525 20.8505,4.43525 21.5,2.5 Z M 20.5,10.5 C 23.1667,10.5 25.8333,10.5 28.5,10.5C 28.0456,15.6952 27.7123,20.6952 27.5,25.5C 28.1922,28.1229 29.6922,30.1229 32,31.5C 35.5,44 31,48.5 18.5,45C 15.6819,41.6621 14.8485,37.8288 16,33.5C 16.6368,31.6969 17.8035,30.3636 19.5,29.5C 20.4963,23.2015 20.8297,16.8682 20.5,10.5 Z"/></g>
</svg>
