<?xml version="1.0" encoding="UTF-8"?>
<!DOCTYPE svg PUBLIC "-//W3C//DTD SVG 1.1//EN" "http://www.w3.org/Graphics/SVG/1.1/DTD/svg11.dtd">
<svg xmlns="http://www.w3.org/2000/svg" version="1.1" width="100px" height="100px" style="shape-rendering:geometricPrecision; text-rendering:geometricPrecision; image-rendering:optimizeQuality; fill-rule:evenodd; clip-rule:evenodd" xmlns:xlink="http://www.w3.org/1999/xlink">
<g><path style="opacity:0.819" fill="#000000" d="M 48.5,5.5 C 56.374,5.52104 63.2073,8.18771 69,13.5C 73.0356,20.5856 73.5356,27.919 70.5,35.5C 71.5748,38.438 71.7415,41.438 71,44.5C 68.2273,48.5421 65.894,52.8754 64,57.5C 63.1533,60.5876 63.6533,63.4209 65.5,66C 71.9544,68.727 78.2878,71.727 84.5,75C 89.4175,79.0015 92.0841,84.1682 92.5,90.5C 65.1667,91.8333 37.8333,91.8333 10.5,90.5C 10.9159,84.1682 13.5825,79.0015 18.5,75C 25.6518,72.0646 32.4852,68.5646 39,64.5C 39.6667,61.8333 39.6667,59.1667 39,56.5C 36.9575,52.2752 34.6242,48.2752 32,44.5C 31.9121,35.8848 31.9121,27.2181 32,18.5C 34.7576,10.5654 40.2576,6.23204 48.5,5.5 Z M 48.5,10.5 C 66.2786,11.9689 71.6119,20.9689 64.5,37.5C 66.1836,38.8544 66.6836,40.5211 66,42.5C 63.4853,46.3561 61.152,50.3561 59,54.5C 57.2409,61.0092 58.7409,66.5092 63.5,71C 68.8333,73.3333 74.1667,75.6667 79.5,78C 82.6588,80.1493 84.9921,82.9826 86.5,86.5C 63.1667,87.8333 39.8333,87.8333 16.5,86.5C 17.4411,84.2279 18.7745,82.2279 20.5,80.5C 26.5233,76.8217 32.8566,73.655 39.5,71C 44.2591,66.5092 45.7591,61.0092 44,54.5C 41.5861,49.7328 39.0861,45.0661 36.5,40.5C 36.9186,39.3279 37.5853,38.3279 38.5,37.5C 35.7621,30.0446 35.9287,22.7112 39,15.5C 41.9074,13.1317 45.0741,11.465 48.5,10.5 Z"/></g>
</svg>
