<?xml version="1.0" encoding="UTF-8"?>
<!DOCTYPE svg PUBLIC "-//W3C//DTD SVG 1.1//EN" "http://www.w3.org/Graphics/SVG/1.1/DTD/svg11.dtd">
<svg xmlns="http://www.w3.org/2000/svg" version="1.1" width="50px" height="50px" style="shape-rendering:geometricPrecision; text-rendering:geometricPrecision; image-rendering:optimizeQuality; fill-rule:evenodd; clip-rule:evenodd" xmlns:xlink="http://www.w3.org/1999/xlink">
<g><path style="opacity:0.625" fill="#000000" d="M 49.5,15.5 C 49.5,16.5 49.5,17.5 49.5,18.5C 47.5372,19.9599 45.7038,21.6266 44,23.5C 33.8884,14.667 22.7218,13.167 10.5,19C 8.75854,20.6196 6.92521,22.1196 5,23.5C 3.29617,21.6266 1.46283,19.9599 -0.5,18.5C -0.5,17.5 -0.5,16.5 -0.5,15.5C 16.1667,3.5 32.8333,3.5 49.5,15.5 Z M 16.5,9.5 C 27.3814,7.60455 37.0481,10.1045 45.5,17C 44.9747,17.6924 44.3081,18.1924 43.5,18.5C 30.8333,10.5 18.1667,10.5 5.5,18.5C 3.72945,17.9646 3.39612,17.1313 4.5,16C 8.4339,13.5361 12.4339,11.3694 16.5,9.5 Z"/></g>
<g><path style="opacity:0.638" fill="#000000" d="M 17.5,18.5 C 24.0614,17.9186 30.3947,18.752 36.5,21C 38.5852,22.0414 40.2519,23.5414 41.5,25.5C 39.8333,27.8333 37.8333,29.8333 35.5,31.5C 28.1667,26.1667 20.8333,26.1667 13.5,31.5C 11.1667,29.8333 9.16667,27.8333 7.5,25.5C 10.3201,22.3328 13.6534,19.9994 17.5,18.5 Z M 18.5,21.5 C 25.5133,20.4357 31.8466,21.9357 37.5,26C 36.9747,26.6924 36.3081,27.1924 35.5,27.5C 28.1667,23.5 20.8333,23.5 13.5,27.5C 12.6919,27.1924 12.0253,26.6924 11.5,26C 13.8981,24.4758 16.2314,22.9758 18.5,21.5 Z"/></g>
<g><path style="opacity:0.581" fill="#000000" d="M 19.5,30.5 C 35.6042,29.8852 37.2709,34.2185 24.5,43.5C 21.1667,40.8333 18.1667,37.8333 15.5,34.5C 16.5487,32.7844 17.882,31.4511 19.5,30.5 Z M 21.5,33.5 C 28.7742,32.7046 29.7742,34.3712 24.5,38.5C 21.922,37.3576 20.922,35.6909 21.5,33.5 Z"/></g>
</svg>
