<?xml version="1.0" encoding="UTF-8"?>
<!DOCTYPE svg PUBLIC "-//W3C//DTD SVG 1.1//EN" "http://www.w3.org/Graphics/SVG/1.1/DTD/svg11.dtd">
<svg xmlns="http://www.w3.org/2000/svg" version="1.1" width="50px" height="50px" style="shape-rendering:geometricPrecision; text-rendering:geometricPrecision; image-rendering:optimizeQuality; fill-rule:evenodd; clip-rule:evenodd" xmlns:xlink="http://www.w3.org/1999/xlink">
<g><path style="opacity:0.699" fill="#000000" d="M 23.5,1.5 C 31.4863,0.998044 33.4863,4.16471 29.5,11C 21.424,11.8047 19.424,8.63805 23.5,1.5 Z M 24.5,4.5 C 25.8333,4.5 27.1667,4.5 28.5,4.5C 28.5,5.83333 28.5,7.16667 28.5,8.5C 27.1667,8.5 25.8333,8.5 24.5,8.5C 24.5,7.16667 24.5,5.83333 24.5,4.5 Z"/></g>
<g><path style="opacity:0.651" fill="#000000" d="M 19.5,12.5 C 22.5184,12.3354 25.5184,12.502 28.5,13C 30.1725,17.8427 33.5059,20.6761 38.5,21.5C 39.4656,23.396 39.7989,25.396 39.5,27.5C 35.658,27.7609 31.9913,27.0942 28.5,25.5C 28.1667,26.1667 27.8333,26.8333 27.5,27.5C 31.9698,33.0421 33.8031,39.3754 33,46.5C 31,47.8333 29,47.8333 27,46.5C 25.9842,43.4322 24.8175,40.4322 23.5,37.5C 21.3679,40.8011 19.0345,43.9678 16.5,47C 11.3333,48.5 9.5,46.6667 11,41.5C 14.6568,37.8654 16.3234,33.5321 16,28.5C 14.2458,30.25 12.0792,30.9167 9.5,30.5C 9.21989,22.3856 12.5532,16.3856 19.5,12.5 Z M 18.5,18.5 C 21.2878,13.8623 23.9544,13.6956 26.5,18C 25.754,21.1507 25.0873,24.3174 24.5,27.5C 25.4464,30.7263 26.9464,33.7263 29,36.5C 29.995,39.1262 30.3283,41.7929 30,44.5C 28.5468,41.7024 27.5468,38.7024 27,35.5C 25.292,33.4565 23.292,31.7899 21,30.5C 20.3618,26.8303 20.8618,23.3303 22.5,20C 21.4366,18.8118 20.1033,18.3118 18.5,18.5 Z M 18.5,18.5 C 18.0269,19.9063 17.0269,20.573 15.5,20.5C 15.9731,19.0937 16.9731,18.427 18.5,18.5 Z M 19.5,33.5 C 20.5735,34.2506 20.7401,35.2506 20,36.5C 18.7031,40.285 16.5364,42.6183 13.5,43.5C 16.0278,40.4377 18.0278,37.1044 19.5,33.5 Z"/></g>
</svg>
