<?xml version="1.0" encoding="UTF-8"?>
<!DOCTYPE svg PUBLIC "-//W3C//DTD SVG 1.1//EN" "http://www.w3.org/Graphics/SVG/1.1/DTD/svg11.dtd">
<svg xmlns="http://www.w3.org/2000/svg" version="1.1" width="48px" height="48px" style="shape-rendering:geometricPrecision; text-rendering:geometricPrecision; image-rendering:optimizeQuality; fill-rule:evenodd; clip-rule:evenodd" xmlns:xlink="http://www.w3.org/1999/xlink">
<g><path style="opacity:0.727" fill="#000000" d="M 21.5,1.5 C 22.8333,1.5 24.1667,1.5 25.5,1.5C 25.5,2.83333 25.5,4.16667 25.5,5.5C 30.394,6.53955 30.7274,8.53955 26.5,11.5C 25.1667,14.1667 25.1667,16.8333 26.5,19.5C 28.0009,18.2485 29.6675,17.2485 31.5,16.5C 32.2229,13.9302 33.3896,11.5968 35,9.5C 36.3139,10.3128 37.4805,11.3128 38.5,12.5C 39.7362,11.7542 41.0695,11.4208 42.5,11.5C 42.6715,13.4918 42.0049,15.1585 40.5,16.5C 41.2458,17.7362 41.5792,19.0695 41.5,20.5C 39.0799,20.7076 36.7466,20.3742 34.5,19.5C 32.5,20.8333 30.5,22.1667 28.5,23.5C 30.5,24.8333 32.5,26.1667 34.5,27.5C 36.4559,26.4519 38.4559,25.9519 40.5,26C 41.9255,27.7141 41.5922,29.0475 39.5,30C 41.6766,31.1861 42.6766,33.0194 42.5,35.5C 41.0695,35.5792 39.7362,35.2458 38.5,34.5C 37.065,36.4011 35.3983,36.7345 33.5,35.5C 32.9851,33.7749 32.3184,32.1083 31.5,30.5C 29.6675,29.7515 28.0009,28.7515 26.5,27.5C 24.8422,31.5363 25.6755,34.8697 29,37.5C 29.49,38.7932 29.6567,40.1266 29.5,41.5C 28.1779,41.67 27.0113,41.3366 26,40.5C 25.5065,42.1341 25.3398,43.8008 25.5,45.5C 24.1667,45.5 22.8333,45.5 21.5,45.5C 21.5,44.1667 21.5,42.8333 21.5,41.5C 16.606,40.4604 16.2726,38.4604 20.5,35.5C 21.8333,32.8333 21.8333,30.1667 20.5,27.5C 18.9991,28.7515 17.3325,29.7515 15.5,30.5C 14.7771,33.0698 13.6104,35.4032 12,37.5C 10.6861,36.6872 9.51948,35.6872 8.5,34.5C 7.26381,35.2458 5.93047,35.5792 4.5,35.5C 4.32846,33.5082 4.99512,31.8415 6.5,30.5C 5.75415,29.2638 5.42082,27.9305 5.5,26.5C 7.92006,26.2924 10.2534,26.6258 12.5,27.5C 14.5,26.1667 16.5,24.8333 18.5,23.5C 16.5,22.1667 14.5,20.8333 12.5,19.5C 10.5441,20.5481 8.54413,21.0481 6.5,21C 5.0745,19.2859 5.40783,17.9525 7.5,17C 5.32345,15.8139 4.32345,13.9806 4.5,11.5C 5.93047,11.4208 7.26381,11.7542 8.5,12.5C 9.93504,10.5989 11.6017,10.2655 13.5,11.5C 14.0149,13.2251 14.6816,14.8917 15.5,16.5C 17.3325,17.2485 18.9991,18.2485 20.5,19.5C 22.1578,15.4637 21.3245,12.1303 18,9.5C 17.51,8.20677 17.3433,6.87344 17.5,5.5C 18.8221,5.33003 19.9887,5.66337 21,6.5C 21.4935,4.86586 21.6602,3.19919 21.5,1.5 Z"/></g>
</svg>
