<?xml version="1.0" encoding="UTF-8"?>
<!DOCTYPE svg PUBLIC "-//W3C//DTD SVG 1.1//EN" "http://www.w3.org/Graphics/SVG/1.1/DTD/svg11.dtd">
<svg xmlns="http://www.w3.org/2000/svg" version="1.1" width="50px" height="50px" style="shape-rendering:geometricPrecision; text-rendering:geometricPrecision; image-rendering:optimizeQuality; fill-rule:evenodd; clip-rule:evenodd" xmlns:xlink="http://www.w3.org/1999/xlink">
<g><path style="opacity:0.888" fill="#000000" d="M 13.5,2.5 C 20.8409,2.33368 28.1742,2.50034 35.5,3C 36.4162,3.37424 37.2496,3.87424 38,4.5C 39.4649,18.4021 39.9649,32.4021 39.5,46.5C 29.5,46.5 19.5,46.5 9.5,46.5C 9.33344,33.1625 9.5001,19.8292 10,6.5C 10.6897,4.64977 11.8564,3.31643 13.5,2.5 Z M 17.5,4.5 C 22.1667,4.5 26.8333,4.5 31.5,4.5C 31.8293,10.5368 31.4959,16.5368 30.5,22.5C 26.5,23.8333 22.5,23.8333 18.5,22.5C 17.5041,16.5368 17.1707,10.5368 17.5,4.5 Z M 14.5,5.5 C 15.3279,11.6534 15.8279,17.9867 16,24.5C 16.5,25 17,25.5 17.5,26C 22.1667,26.6667 26.8333,26.6667 31.5,26C 32,25.5 32.5,25 33,24.5C 33.3333,18.1667 33.6667,11.8333 34,5.5C 34.6667,6.16667 35.3333,6.83333 36,7.5C 37.1051,13.923 37.6051,20.423 37.5,27C 37.4892,32.7452 37.1559,38.4119 36.5,44C 28.2543,44.8149 20.0876,44.6483 12,43.5C 11.3333,32.5 11.3333,21.5 12,10.5C 12.3661,8.54826 13.1995,6.88159 14.5,5.5 Z M 22.5,36.5 C 23.2891,36.7828 23.9558,37.2828 24.5,38C 23.184,38.5281 22.5173,38.0281 22.5,36.5 Z"/></g>
<g><path style="opacity:0.877" fill="#000000" d="M 18.5,7.5 C 22.5546,7.17575 26.5546,7.50909 30.5,8.5C 28.5,8.83333 26.5,9.16667 24.5,9.5C 22.0478,9.46093 20.0478,8.79426 18.5,7.5 Z"/></g>
<g><path style="opacity:0.877" fill="#000000" d="M 18.5,11.5 C 22.5546,11.1758 26.5546,11.5091 30.5,12.5C 28.5,12.8333 26.5,13.1667 24.5,13.5C 22.0478,13.4609 20.0478,12.7943 18.5,11.5 Z"/></g>
<g><path style="opacity:0.877" fill="#000000" d="M 18.5,15.5 C 22.5546,15.1758 26.5546,15.5091 30.5,16.5C 28.5,16.8333 26.5,17.1667 24.5,17.5C 22.0478,17.4609 20.0478,16.7943 18.5,15.5 Z"/></g>
<g><path style="opacity:0.877" fill="#000000" d="M 18.5,19.5 C 22.5546,19.1758 26.5546,19.5091 30.5,20.5C 28.5,20.8333 26.5,21.1667 24.5,21.5C 22.0478,21.4609 20.0478,20.7943 18.5,19.5 Z"/></g>
<g><path style="opacity:0.681" fill="#000000" d="M 17.5,29.5 C 20.4581,30.3562 23.4581,30.5229 26.5,30C 28.6328,33.632 30.2995,37.4653 31.5,41.5C 31,41.8333 30.5,42.1667 30,42.5C 27.2048,41.8148 24.3715,41.3148 21.5,41C 20.0301,37.2254 18.6968,33.3921 17.5,29.5 Z M 22.5,36.5 C 22.5173,38.0281 23.184,38.5281 24.5,38C 23.9558,37.2828 23.2891,36.7828 22.5,36.5 Z"/></g>
</svg>
