<?xml version="1.0" encoding="UTF-8"?>
<!DOCTYPE svg PUBLIC "-//W3C//DTD SVG 1.1//EN" "http://www.w3.org/Graphics/SVG/1.1/DTD/svg11.dtd">
<svg xmlns="http://www.w3.org/2000/svg" version="1.1" width="50px" height="50px" style="shape-rendering:geometricPrecision; text-rendering:geometricPrecision; image-rendering:optimizeQuality; fill-rule:evenodd; clip-rule:evenodd" xmlns:xlink="http://www.w3.org/1999/xlink">
<g><path style="opacity:0.677" fill="#000000" d="M 29.5,2.5 C 30.5,2.5 31.5,2.5 32.5,2.5C 31.22,8.45461 29.5534,14.2879 27.5,20C 31.1516,20.4986 34.8183,20.6653 38.5,20.5C 38.6495,21.552 38.4828,22.552 38,23.5C 32.6667,30.1667 27.3333,36.8333 22,43.5C 20.7365,45.607 18.9032,46.607 16.5,46.5C 17.9593,40.787 19.626,35.1204 21.5,29.5C 17.8927,28.5108 14.226,28.1774 10.5,28.5C 10.3505,27.448 10.5172,26.448 11,25.5C 17.3799,17.9589 23.5466,10.2922 29.5,2.5 Z M 23.5,35.5 C 23.5481,32.6872 24.2147,30.0205 25.5,27.5C 22.1667,26.8333 18.8333,26.1667 15.5,25.5C 18.8104,21.022 22.3104,16.6886 26,12.5C 25.5266,15.7581 25.0266,19.0914 24.5,22.5C 27.5719,22.1826 30.5719,22.5159 33.5,23.5C 30.4905,27.8363 27.1572,31.8363 23.5,35.5 Z"/></g>
</svg>
