<?xml version="1.0" encoding="UTF-8"?>
<!DOCTYPE svg PUBLIC "-//W3C//DTD SVG 1.1//EN" "http://www.w3.org/Graphics/SVG/1.1/DTD/svg11.dtd">
<svg xmlns="http://www.w3.org/2000/svg" version="1.1" width="48px" height="48px" style="shape-rendering:geometricPrecision; text-rendering:geometricPrecision; image-rendering:optimizeQuality; fill-rule:evenodd; clip-rule:evenodd" xmlns:xlink="http://www.w3.org/1999/xlink">
<g><path style="opacity:0.862" fill="#000000" d="M 5.5,11.5 C 11.0347,14.1896 16.2014,17.5229 21,21.5C 21.1764,18.1182 21.6764,14.7848 22.5,11.5C 27.4709,14.6382 32.3042,17.9715 37,21.5C 37.4983,18.1832 37.665,14.8499 37.5,11.5C 38.8333,11.5 40.1667,11.5 41.5,11.5C 41.5,19.5 41.5,27.5 41.5,35.5C 40.1667,35.5 38.8333,35.5 37.5,35.5C 37.665,32.1501 37.4983,28.8168 37,25.5C 32.3042,29.0285 27.4709,32.3618 22.5,35.5C 21.6764,32.2152 21.1764,28.8818 21,25.5C 16.3042,29.0285 11.4709,32.3618 6.5,35.5C 5.5023,27.5277 5.16897,19.5277 5.5,11.5 Z M 9.5,20.5 C 14.516,22.1805 14.6826,24.1805 10,26.5C 9.50454,24.5273 9.33788,22.5273 9.5,20.5 Z M 25.5,20.5 C 30.516,22.1805 30.6826,24.1805 26,26.5C 25.5045,24.5273 25.3379,22.5273 25.5,20.5 Z"/></g>
</svg>
