<?xml version="1.0" encoding="UTF-8"?>
<!DOCTYPE svg PUBLIC "-//W3C//DTD SVG 1.1//EN" "http://www.w3.org/Graphics/SVG/1.1/DTD/svg11.dtd">
<svg xmlns="http://www.w3.org/2000/svg" version="1.1" width="50px" height="50px" style="shape-rendering:geometricPrecision; text-rendering:geometricPrecision; image-rendering:optimizeQuality; fill-rule:evenodd; clip-rule:evenodd" xmlns:xlink="http://www.w3.org/1999/xlink">
<g><path style="opacity:0.936" fill="#000000" d="M 10.5,2.5 C 20.0834,2.18158 29.5834,2.51491 39,3.5C 39.8229,17.7415 39.6562,31.9082 38.5,46C 28.9223,46.8176 19.4223,46.6509 10,45.5C 9.18508,31.092 9.35175,16.7586 10.5,2.5 Z M 13.5,4.5 C 20.8409,4.33368 28.1742,4.50034 35.5,5C 36,5.5 36.5,6 37,6.5C 37.6667,18.5 37.6667,30.5 37,42.5C 36.5,43 36,43.5 35.5,44C 28.1667,44.6667 20.8333,44.6667 13.5,44C 13,43.5 12.5,43 12,42.5C 11.3333,30.5 11.3333,18.5 12,6.5C 12.7172,5.9558 13.2172,5.28913 13.5,4.5 Z M 15.5,8.5 C 21.5,8.5 27.5,8.5 33.5,8.5C 33.5,11.8333 33.5,15.1667 33.5,18.5C 27.5,18.5 21.5,18.5 15.5,18.5C 15.5,15.1667 15.5,11.8333 15.5,8.5 Z M 21.5,25.5 C 30.8504,25.3654 33.517,29.532 29.5,38C 20.9562,41.3224 17.1229,38.4891 18,29.5C 18.6897,27.6498 19.8564,26.3164 21.5,25.5 Z"/></g>
<g><path style="opacity:0.992" fill="#000000" d="M 13.5,6.5 C 20.8333,6.5 28.1667,6.5 35.5,6.5C 35.5,11.1667 35.5,15.8333 35.5,20.5C 28.1667,20.5 20.8333,20.5 13.5,20.5C 13.5,15.8333 13.5,11.1667 13.5,6.5 Z M 15.5,8.5 C 15.5,11.8333 15.5,15.1667 15.5,18.5C 21.5,18.5 27.5,18.5 33.5,18.5C 33.5,15.1667 33.5,11.8333 33.5,8.5C 27.5,8.5 21.5,8.5 15.5,8.5 Z"/></g>
<g><path style="opacity:0.623" fill="#000000" d="M 19.5,22.5 C 31.3244,20.8236 36.1577,25.8236 34,37.5C 30.3449,42.2745 25.5116,43.7745 19.5,42C 14.7255,38.3449 13.2255,33.5116 15,27.5C 16.3657,25.6383 17.8657,23.9717 19.5,22.5 Z M 21.5,25.5 C 19.8564,26.3164 18.6897,27.6498 18,29.5C 17.1229,38.4891 20.9562,41.3224 29.5,38C 33.517,29.532 30.8504,25.3654 21.5,25.5 Z"/></g>
<g><path style="opacity:0.678" fill="#000000" d="M 21.5,29.5 C 23.5,29.5 25.5,29.5 27.5,29.5C 27.5,31.5 27.5,33.5 27.5,35.5C 25.5,35.5 23.5,35.5 21.5,35.5C 21.5,33.5 21.5,31.5 21.5,29.5 Z"/></g>
</svg>
