<?xml version="1.0" encoding="UTF-8"?>
<!DOCTYPE svg PUBLIC "-//W3C//DTD SVG 1.1//EN" "http://www.w3.org/Graphics/SVG/1.1/DTD/svg11.dtd">
<svg xmlns="http://www.w3.org/2000/svg" version="1.1" width="30px" height="30px" style="shape-rendering:geometricPrecision; text-rendering:geometricPrecision; image-rendering:optimizeQuality; fill-rule:evenodd; clip-rule:evenodd" xmlns:xlink="http://www.w3.org/1999/xlink">
<g><path style="opacity:0.895" fill="#000000" d="M 3.5,3.5 C 4.67504,3.28099 5.67504,3.61432 6.5,4.5C 5.16667,11.1667 5.16667,17.8333 6.5,24.5C 5.67504,25.3857 4.67504,25.719 3.5,25.5C 3.5,18.1667 3.5,10.8333 3.5,3.5 Z"/></g>
<g><path style="opacity:0.895" fill="#000000" d="M 7.5,3.5 C 8.67504,3.28099 9.67504,3.61432 10.5,4.5C 9.16667,11.1667 9.16667,17.8333 10.5,24.5C 9.67504,25.3857 8.67504,25.719 7.5,25.5C 7.5,18.1667 7.5,10.8333 7.5,3.5 Z"/></g>
<g><path style="opacity:0.961" fill="#000000" d="M 11.5,3.5 C 16.1667,3.5 20.8333,3.5 25.5,3.5C 25.5,10.8333 25.5,18.1667 25.5,25.5C 20.8333,25.5 16.1667,25.5 11.5,25.5C 11.5,18.1667 11.5,10.8333 11.5,3.5 Z M 13.5,5.5 C 16.8333,5.5 20.1667,5.5 23.5,5.5C 23.5,11.1667 23.5,16.8333 23.5,22.5C 20.1667,23.8333 16.8333,23.8333 13.5,22.5C 13.5,16.8333 13.5,11.1667 13.5,5.5 Z"/></g>
</svg>
