<?xml version="1.0" encoding="UTF-8"?>
<!DOCTYPE svg PUBLIC "-//W3C//DTD SVG 1.1//EN" "http://www.w3.org/Graphics/SVG/1.1/DTD/svg11.dtd">
<svg xmlns="http://www.w3.org/2000/svg" version="1.1" width="50px" height="50px" style="shape-rendering:geometricPrecision; text-rendering:geometricPrecision; image-rendering:optimizeQuality; fill-rule:evenodd; clip-rule:evenodd" xmlns:xlink="http://www.w3.org/1999/xlink">
<g><path style="opacity:0.972" fill="#000000" d="M -0.5,4.5 C 16.1667,4.5 32.8333,4.5 49.5,4.5C 49.5,17.8333 49.5,31.1667 49.5,44.5C 32.8333,44.5 16.1667,44.5 -0.5,44.5C -0.5,31.1667 -0.5,17.8333 -0.5,4.5 Z M 2.5,6.5 C 7.83333,6.5 13.1667,6.5 18.5,6.5C 18.5,18.5 18.5,30.5 18.5,42.5C 12.9066,42.8066 7.40655,42.4732 2,41.5C 1.18944,29.7574 1.3561,18.0907 2.5,6.5 Z M 20.5,6.5 C 29.1731,6.33358 37.8397,6.50025 46.5,7C 47.8333,18.6667 47.8333,30.3333 46.5,42C 37.8397,42.4998 29.1731,42.6664 20.5,42.5C 20.5,30.5 20.5,18.5 20.5,6.5 Z M 5.5,18.5 C 8.57186,18.1826 11.5719,18.5159 14.5,19.5C 13,19.8333 11.5,20.1667 10,20.5C 8.01448,20.4313 6.51448,19.7647 5.5,18.5 Z"/></g>
<g><path style="opacity:0.678" fill="#000000" d="M 3.5,8.5 C 5.5,8.5 7.5,8.5 9.5,8.5C 9.5,10.5 9.5,12.5 9.5,14.5C 7.5,14.5 5.5,14.5 3.5,14.5C 3.5,12.5 3.5,10.5 3.5,8.5 Z"/></g>
<g><path style="opacity:0.678" fill="#000000" d="M 10.5,8.5 C 12.5,8.5 14.5,8.5 16.5,8.5C 16.5,10.5 16.5,12.5 16.5,14.5C 14.5,14.5 12.5,14.5 10.5,14.5C 10.5,12.5 10.5,10.5 10.5,8.5 Z"/></g>
<g><path style="opacity:0.984" fill="#000000" d="M 3.5,16.5 C 7.83333,16.5 12.1667,16.5 16.5,16.5C 16.5,18.5 16.5,20.5 16.5,22.5C 12.1667,22.5 7.83333,22.5 3.5,22.5C 3.5,20.5 3.5,18.5 3.5,16.5 Z M 5.5,18.5 C 6.51448,19.7647 8.01448,20.4313 10,20.5C 11.5,20.1667 13,19.8333 14.5,19.5C 11.5719,18.5159 8.57186,18.1826 5.5,18.5 Z"/></g>
</svg>
