<?xml version="1.0" encoding="UTF-8"?>
<!DOCTYPE svg PUBLIC "-//W3C//DTD SVG 1.1//EN" "http://www.w3.org/Graphics/SVG/1.1/DTD/svg11.dtd">
<svg xmlns="http://www.w3.org/2000/svg" version="1.1" width="24px" height="24px" style="shape-rendering:geometricPrecision; text-rendering:geometricPrecision; image-rendering:optimizeQuality; fill-rule:evenodd; clip-rule:evenodd" xmlns:xlink="http://www.w3.org/1999/xlink">
<g><path style="opacity:0.859" fill="#000000" d="M 7.5,0.5 C 11.0071,-0.00647424 14.1737,0.660192 17,2.5C 19.0003,8.6698 19.8337,15.0031 19.5,21.5C 14.1667,21.5 8.83333,21.5 3.5,21.5C 2.89622,14.0269 4.22955,7.02688 7.5,0.5 Z M 9.5,3.5 C 12.5497,2.92319 14.5497,4.08986 15.5,7C 12.8333,7.66667 10.1667,7.66667 7.5,7C 8.30501,5.88732 8.97168,4.72065 9.5,3.5 Z M 5.5,9.5 C 9.5,9.5 13.5,9.5 17.5,9.5C 17.5,12.8333 17.5,16.1667 17.5,19.5C 13.5,19.5 9.5,19.5 5.5,19.5C 5.5,16.1667 5.5,12.8333 5.5,9.5 Z"/></g>
<g><path style="opacity:0.766" fill="#000000" d="M 6.5,13.5 C 8.33702,13.6395 8.67036,14.3061 7.5,15.5C 6.70245,15.0431 6.36912,14.3764 6.5,13.5 Z"/></g>
<g><path style="opacity:0.766" fill="#000000" d="M 10.5,13.5 C 12.337,13.6395 12.6704,14.3061 11.5,15.5C 10.7025,15.0431 10.3691,14.3764 10.5,13.5 Z"/></g>
<g><path style="opacity:0.766" fill="#000000" d="M 14.5,13.5 C 16.337,13.6395 16.6704,14.3061 15.5,15.5C 14.7025,15.0431 14.3691,14.3764 14.5,13.5 Z"/></g>
</svg>
