<?xml version="1.0" encoding="UTF-8"?>
<!DOCTYPE svg PUBLIC "-//W3C//DTD SVG 1.1//EN" "http://www.w3.org/Graphics/SVG/1.1/DTD/svg11.dtd">
<svg xmlns="http://www.w3.org/2000/svg" version="1.1" width="50px" height="50px" style="shape-rendering:geometricPrecision; text-rendering:geometricPrecision; image-rendering:optimizeQuality; fill-rule:evenodd; clip-rule:evenodd" xmlns:xlink="http://www.w3.org/1999/xlink">
<g><path style="opacity:0.615" fill="#000000" d="M 17.5,1.5 C 41.1541,0.318958 50.6541,11.319 46,34.5C 38.7573,46.8068 28.2573,50.6402 14.5,46C 2.19317,38.7573 -1.64016,28.2573 3,14.5C 6.16246,8.16411 10.9958,3.83077 17.5,1.5 Z M 18.5,4.5 C 36.9488,3.44852 45.4488,12.1152 44,30.5C 38.1981,42.9824 28.6981,47.1491 15.5,43C 4.9871,36.4639 1.82043,27.2972 6,15.5C 9.1476,10.5094 13.3143,6.84275 18.5,4.5 Z"/></g>
<g><path style="opacity:0.647" fill="#000000" d="M 18.5,7.5 C 20.2252,7.84254 20.7252,8.84254 20,10.5C 10.9215,14.9988 8.25486,21.9988 12,31.5C 18.3492,39.3891 25.8492,40.5558 34.5,35C 39.1956,28.8691 39.6956,22.3691 36,15.5C 34.0188,13.3425 31.6855,11.6759 29,10.5C 28.2506,9.36495 28.4173,8.36495 29.5,7.5C 41.6849,13.2627 44.8516,22.2627 39,34.5C 32.0062,41.9912 23.8395,43.4912 14.5,39C 7.0088,32.0062 5.5088,23.8395 10,14.5C 12.4412,11.5464 15.2745,9.21311 18.5,7.5 Z"/></g>
<g><path style="opacity:0.975" fill="#000000" d="M 23.5,7.5 C 24.8164,10.0866 25.483,13.0866 25.5,16.5C 25.1667,19.5 24.8333,22.5 24.5,25.5C 23.5041,19.5368 23.1707,13.5368 23.5,7.5 Z"/></g>
</svg>
