<?xml version="1.0" encoding="UTF-8"?>
<!DOCTYPE svg PUBLIC "-//W3C//DTD SVG 1.1//EN" "http://www.w3.org/Graphics/SVG/1.1/DTD/svg11.dtd">
<svg xmlns="http://www.w3.org/2000/svg" version="1.1" width="50px" height="50px" style="shape-rendering:geometricPrecision; text-rendering:geometricPrecision; image-rendering:optimizeQuality; fill-rule:evenodd; clip-rule:evenodd" xmlns:xlink="http://www.w3.org/1999/xlink">
<g><path style="opacity:0.809" fill="#000000" d="M 8.5,3.5 C 19.1719,3.3335 29.8385,3.50016 40.5,4C 42.3333,5.16667 43.8333,6.66667 45,8.5C 45.6667,19.1667 45.6667,29.8333 45,40.5C 43.8333,42.3333 42.3333,43.8333 40.5,45C 29.8333,45.6667 19.1667,45.6667 8.5,45C 6.66667,43.8333 5.16667,42.3333 4,40.5C 3.33333,29.8333 3.33333,19.1667 4,8.5C 5.36569,6.63834 6.86569,4.97167 8.5,3.5 Z M 13.5,5.5 C 20.8409,5.33368 28.1742,5.50034 35.5,6C 40,6.5 42.5,9 43,13.5C 43.6667,20.8333 43.6667,28.1667 43,35.5C 42.5,40 40,42.5 35.5,43C 28.1667,43.6667 20.8333,43.6667 13.5,43C 9,42.5 6.5,40 6,35.5C 5.33333,28.1667 5.33333,20.8333 6,13.5C 6.68042,8.98947 9.18042,6.3228 13.5,5.5 Z M 19.5,11.5 C 19.5,12.8333 19.5,14.1667 19.5,15.5C 17.9582,14.6993 16.2915,14.366 14.5,14.5C 15.6594,12.7497 17.326,11.7497 19.5,11.5 Z M 23.5,14.5 C 28.6862,14.0932 32.3529,16.2598 34.5,21C 32.4098,21.2677 31.0764,20.2677 30.5,18C 27.6971,17.385 25.3637,16.2183 23.5,14.5 Z M 15.5,18.5 C 16.3764,18.3691 17.0431,18.7025 17.5,19.5C 16.631,23.2782 16.2977,26.9449 16.5,30.5C 14.1965,26.7224 13.8632,22.7224 15.5,18.5 Z M 26.5,19.5 C 27.2891,19.7828 27.9558,20.2828 28.5,21C 27.184,21.5281 26.5173,21.0281 26.5,19.5 Z M 37.5,19.5 C 38.8333,22.8333 38.8333,26.1667 37.5,29.5C 37.5,28.1667 37.5,26.8333 37.5,25.5C 32.737,25.2256 28.0704,25.559 23.5,26.5C 23.5,25.1667 23.5,23.8333 23.5,22.5C 28.0704,23.441 32.737,23.7744 37.5,23.5C 37.5,22.1667 37.5,20.8333 37.5,19.5 Z M 26.5,27.5 C 29.0009,27.5109 29.1676,28.1776 27,29.5C 26.5357,28.9056 26.369,28.2389 26.5,27.5 Z M 32.5,27.5 C 33.2389,27.369 33.9056,27.5357 34.5,28C 32.3199,33.0906 28.6532,34.9239 23.5,33.5C 27.7718,33.2107 30.7718,31.2107 32.5,27.5 Z M 19.5,33.5 C 19.5,34.8333 19.5,36.1667 19.5,37.5C 17.5659,36.8897 15.8993,35.8897 14.5,34.5C 16.2915,34.634 17.9582,34.3007 19.5,33.5 Z"/></g>
<g><path style="opacity:0.666" fill="#000000" d="M 18.5,7.5 C 38.0926,6.91781 44.9259,15.9178 39,34.5C 32.0062,41.9912 23.8395,43.4912 14.5,39C 7.0088,32.0062 5.5088,23.8395 10,14.5C 12.4412,11.5464 15.2745,9.21311 18.5,7.5 Z M 19.5,11.5 C 19.5,12.8333 19.5,14.1667 19.5,15.5C 17.9582,14.6993 16.2915,14.366 14.5,14.5C 15.6594,12.7497 17.326,11.7497 19.5,11.5 Z M 23.5,14.5 C 25.3637,16.2183 27.6971,17.385 30.5,18C 31.0764,20.2677 32.4098,21.2677 34.5,21C 32.3529,16.2598 28.6862,14.0932 23.5,14.5 Z M 15.5,18.5 C 13.8632,22.7224 14.1965,26.7224 16.5,30.5C 16.2977,26.9449 16.631,23.2782 17.5,19.5C 17.0431,18.7025 16.3764,18.3691 15.5,18.5 Z M 26.5,19.5 C 26.5173,21.0281 27.184,21.5281 28.5,21C 27.9558,20.2828 27.2891,19.7828 26.5,19.5 Z M 37.5,19.5 C 38.8333,22.8333 38.8333,26.1667 37.5,29.5C 37.5,28.1667 37.5,26.8333 37.5,25.5C 32.737,25.2256 28.0704,25.559 23.5,26.5C 23.5,25.1667 23.5,23.8333 23.5,22.5C 28.0704,23.441 32.737,23.7744 37.5,23.5C 37.5,22.1667 37.5,20.8333 37.5,19.5 Z M 26.5,27.5 C 26.369,28.2389 26.5357,28.9056 27,29.5C 29.1676,28.1776 29.0009,27.5109 26.5,27.5 Z M 32.5,27.5 C 30.7718,31.2107 27.7718,33.2107 23.5,33.5C 28.6532,34.9239 32.3199,33.0906 34.5,28C 33.9056,27.5357 33.2389,27.369 32.5,27.5 Z M 19.5,33.5 C 19.5,34.8333 19.5,36.1667 19.5,37.5C 17.5659,36.8897 15.8993,35.8897 14.5,34.5C 16.2915,34.634 17.9582,34.3007 19.5,33.5 Z"/></g>
</svg>
