<?xml version="1.0" encoding="UTF-8"?>
<!DOCTYPE svg PUBLIC "-//W3C//DTD SVG 1.1//EN" "http://www.w3.org/Graphics/SVG/1.1/DTD/svg11.dtd">
<svg xmlns="http://www.w3.org/2000/svg" version="1.1" width="50px" height="50px" style="shape-rendering:geometricPrecision; text-rendering:geometricPrecision; image-rendering:optimizeQuality; fill-rule:evenodd; clip-rule:evenodd" xmlns:xlink="http://www.w3.org/1999/xlink">
<g><path style="opacity:0.609" fill="#000000" d="M 10.5,0.5 C 11.8333,0.5 13.1667,0.5 14.5,0.5C 14.5,7.16667 17.8333,10.5 24.5,10.5C 24.5,11.8333 24.5,13.1667 24.5,14.5C 17.8333,14.5 14.5,17.8333 14.5,24.5C 13.1667,24.5 11.8333,24.5 10.5,24.5C 10.5,17.8333 7.16667,14.5 0.5,14.5C 0.5,13.1667 0.5,11.8333 0.5,10.5C 7.16667,10.5 10.5,7.16667 10.5,0.5 Z M 11.5,8.5 C 13.1486,9.71401 14.8152,11.0473 16.5,12.5C 14.8333,13.5 13.5,14.8333 12.5,16.5C 11.5,14.8333 10.1667,13.5 8.5,12.5C 10.2882,11.7174 11.2882,10.3841 11.5,8.5 Z"/></g>
<g><path style="opacity:0.665" fill="#000000" d="M 49.5,25.5 C 49.5,26.5 49.5,27.5 49.5,28.5C 45.8204,29.5596 42.1537,30.7262 38.5,32C 37.2281,36.1748 35.3947,40.0081 33,43.5C 30.5807,40.2704 28.914,36.6037 28,32.5C 23.8252,31.2281 19.9919,29.3947 16.5,27C 19.7296,24.5807 23.3963,22.914 27.5,22C 28.7719,17.8252 30.6053,13.9919 33,10.5C 35.3947,13.9919 37.2281,17.8252 38.5,22C 42.1537,23.2738 45.8204,24.4404 49.5,25.5 Z M 32.5,16.5 C 33.6285,19.1854 34.9618,21.8521 36.5,24.5C 38.7954,25.4318 41.1287,26.2652 43.5,27C 37,27.5 33.5,31 33,37.5C 32.5,31 29,27.5 22.5,27C 29.1079,26.5598 32.4412,23.0598 32.5,16.5 Z"/></g>
<g><path style="opacity:0.616" fill="#000000" d="M -0.5,41.5 C -0.5,40.1667 -0.5,38.8333 -0.5,37.5C 1.5,37.1667 3.5,36.8333 5.5,36.5C 5.83333,34.5 6.16667,32.5 6.5,30.5C 7.83333,30.5 9.16667,30.5 10.5,30.5C 10.8333,32.5 11.1667,34.5 11.5,36.5C 13.5,36.8333 15.5,37.1667 17.5,37.5C 17.5,38.8333 17.5,40.1667 17.5,41.5C 15.5,41.8333 13.5,42.1667 11.5,42.5C 11.1667,44.5 10.8333,46.5 10.5,48.5C 9.16667,48.5 7.83333,48.5 6.5,48.5C 6.16667,46.5 5.83333,44.5 5.5,42.5C 3.5,42.1667 1.5,41.8333 -0.5,41.5 Z M 7.5,38.5 C 9.33702,38.6395 9.67036,39.3061 8.5,40.5C 7.70245,40.0431 7.36912,39.3764 7.5,38.5 Z"/></g>
</svg>
