<?xml version="1.0" encoding="UTF-8"?>
<!DOCTYPE svg PUBLIC "-//W3C//DTD SVG 1.1//EN" "http://www.w3.org/Graphics/SVG/1.1/DTD/svg11.dtd">
<svg xmlns="http://www.w3.org/2000/svg" version="1.1" width="24px" height="24px" style="shape-rendering:geometricPrecision; text-rendering:geometricPrecision; image-rendering:optimizeQuality; fill-rule:evenodd; clip-rule:evenodd" xmlns:xlink="http://www.w3.org/1999/xlink">
<g><path style="opacity:0.618" fill="#000000" d="M -0.5,6.5 C -0.5,6.16667 -0.5,5.83333 -0.5,5.5C 0.707917,4.76589 2.04125,4.43255 3.5,4.5C 4.5,-0.833333 5.5,-0.833333 6.5,4.5C 11.8333,5.5 11.8333,6.5 6.5,7.5C 5.5,12.8333 4.5,12.8333 3.5,7.5C 2.04125,7.56745 0.707917,7.23411 -0.5,6.5 Z"/></g>
<g><path style="opacity:0.668" fill="#000000" d="M 23.5,12.5 C 23.5,12.8333 23.5,13.1667 23.5,13.5C 21.7028,14.7298 19.7028,15.3964 17.5,15.5C 15.8333,23.5 14.1667,23.5 12.5,15.5C 4.5,13.8333 4.5,12.1667 12.5,10.5C 14.1667,2.5 15.8333,2.5 17.5,10.5C 19.7028,10.6036 21.7028,11.2702 23.5,12.5 Z M 14.5,11.5 C 16.7602,12.2376 16.9269,13.2376 15,14.5C 13.2716,13.6477 13.105,12.6477 14.5,11.5 Z"/></g>
<g><path style="opacity:0.49" fill="#000000" d="M 4.5,15.5 C 5.9616,16.4577 7.29493,17.6244 8.5,19C 7.33333,20.1667 6.16667,21.3333 5,22.5C 3.83333,21.3333 2.66667,20.1667 1.5,19C 2.7101,17.9609 3.7101,16.7942 4.5,15.5 Z"/></g>
</svg>
