<?xml version="1.0" encoding="UTF-8"?>
<!DOCTYPE svg PUBLIC "-//W3C//DTD SVG 1.1//EN" "http://www.w3.org/Graphics/SVG/1.1/DTD/svg11.dtd">
<svg xmlns="http://www.w3.org/2000/svg" version="1.1" width="50px" height="50px" style="shape-rendering:geometricPrecision; text-rendering:geometricPrecision; image-rendering:optimizeQuality; fill-rule:evenodd; clip-rule:evenodd" xmlns:xlink="http://www.w3.org/1999/xlink">
<g><path style="opacity:0.65" fill="#000000" d="M 20.5,1.5 C 23.1667,1.5 25.8333,1.5 28.5,1.5C 28.6399,3.12377 27.9733,4.29044 26.5,5C 41.8088,8.43153 47.9755,17.9315 45,33.5C 37.4419,48.0723 26.2752,51.5723 11.5,44C 2.62627,35.0024 1.12627,24.8357 7,13.5C 11.0846,8.70745 16.2512,5.87411 22.5,5C 21.0267,4.29044 20.3601,3.12377 20.5,1.5 Z M 18.5,8.5 C 29.4328,6.54931 37.2662,10.5493 42,20.5C 44.4472,31.4385 40.6139,39.2718 30.5,44C 19.5615,46.4472 11.7282,42.6139 7,32.5C 4.68481,21.4658 8.51815,13.4658 18.5,8.5 Z"/></g>
<g><path style="opacity:0.597" fill="#000000" d="M 38.5,4.5 C 42.791,4.93033 44.4576,7.09699 43.5,11C 41.255,10.8047 39.4216,9.63806 38,7.5C 37.5304,6.42317 37.6971,5.42317 38.5,4.5 Z"/></g>
<g><path style="opacity:0.629" fill="#000000" d="M 13.5,15.5 C 14.552,15.3505 15.552,15.5172 16.5,16C 19.3489,19.0162 22.3489,21.8496 25.5,24.5C 27.415,26.0712 28.415,28.0712 28.5,30.5C 26.5165,30.6168 24.8498,29.9501 23.5,28.5C 20.516,25.0154 17.3493,21.682 14,18.5C 13.5172,17.552 13.3505,16.552 13.5,15.5 Z"/></g>
</svg>
