<?xml version="1.0" encoding="UTF-8"?>
<!DOCTYPE svg PUBLIC "-//W3C//DTD SVG 1.1//EN" "http://www.w3.org/Graphics/SVG/1.1/DTD/svg11.dtd">
<svg xmlns="http://www.w3.org/2000/svg" version="1.1" width="50px" height="50px" style="shape-rendering:geometricPrecision; text-rendering:geometricPrecision; image-rendering:optimizeQuality; fill-rule:evenodd; clip-rule:evenodd" xmlns:xlink="http://www.w3.org/1999/xlink">
<g><path style="opacity:0.938" fill="#000000" d="M 17.5,-0.5 C 20.8333,-0.5 24.1667,-0.5 27.5,-0.5C 33.3694,2.90311 35.7028,7.90311 34.5,14.5C 32.4707,10.3036 29.8041,6.47029 26.5,3C 18.8395,0.994024 14.1729,3.82736 12.5,11.5C 13.3779,14.1298 14.0445,16.7965 14.5,19.5C 24.1667,19.5 33.8333,19.5 43.5,19.5C 43.5,29.5 43.5,39.5 43.5,49.5C 30.8333,49.5 18.1667,49.5 5.5,49.5C 5.5,39.5 5.5,29.5 5.5,19.5C 7.60395,19.7989 9.60395,19.4656 11.5,18.5C 7.91726,10.2523 9.91726,3.91895 17.5,-0.5 Z M 22.5,30.5 C 23.8333,30.5 25.1667,30.5 26.5,30.5C 26.6633,32.8568 26.4966,35.1902 26,37.5C 25,38.8333 24,38.8333 23,37.5C 22.5034,35.1902 22.3367,32.8568 22.5,30.5 Z"/></g>
</svg>
